solid ZHUNZHI
  facet normal -1.000000 0.000000 -0.000000
    outer loop
      vertex 3.000001 3.000001 60.000000
      vertex 3.000001 3.000001 0.000001
      vertex 3.000001 1.000001 0.000001
    endloop
  endfacet
  facet normal -1.000000 0.000000 0.000000
    outer loop
      vertex 3.000001 1.000001 60.000000
      vertex 3.000001 3.000001 60.000000
      vertex 3.000001 1.000001 0.000001
    endloop
  endfacet
  facet normal 0.000000 -1.000000 0.000000
    outer loop
      vertex 1.000001 3.000001 60.000000
      vertex 1.000001 3.000001 0.000001
      vertex 3.000001 3.000001 0.000001
    endloop
  endfacet
  facet normal -0.000000 -1.000000 -0.000000
    outer loop
      vertex 3.000001 3.000001 60.000000
      vertex 1.000001 3.000001 60.000000
      vertex 3.000001 3.000001 0.000001
    endloop
  endfacet
  facet normal 1.000000 0.000000 0.000000
    outer loop
      vertex 1.000001 1.000001 60.000000
      vertex 1.000001 1.000001 0.000001
      vertex 1.000001 3.000001 0.000001
    endloop
  endfacet
  facet normal 1.000000 0.000000 0.000000
    outer loop
      vertex 1.000001 3.000001 60.000000
      vertex 1.000001 1.000001 60.000000
      vertex 1.000001 3.000001 0.000001
    endloop
  endfacet
  facet normal 0.000000 1.000000 0.000000
    outer loop
      vertex 3.000001 1.000001 60.000000
      vertex 3.000001 1.000001 0.000001
      vertex 1.000001 1.000001 0.000001
    endloop
  endfacet
  facet normal -0.000000 1.000000 0.000000
    outer loop
      vertex 1.000001 1.000001 60.000000
      vertex 3.000001 1.000001 60.000000
      vertex 1.000001 1.000001 0.000001
    endloop
  endfacet
  facet normal 1.000000 0.000000 0.000000
    outer loop
      vertex 4.000001 0.000001 60.000000
      vertex 4.000001 0.000001 0.000001
      vertex 4.000001 4.000001 0.000001
    endloop
  endfacet
  facet normal 1.000000 0.000000 0.000000
    outer loop
      vertex 4.000001 4.000001 60.000000
      vertex 4.000001 0.000001 60.000000
      vertex 4.000001 4.000001 0.000001
    endloop
  endfacet
  facet normal 0.000000 -1.000000 0.000000
    outer loop
      vertex 0.000001 0.000001 60.000000
      vertex 0.000001 0.000001 0.000001
      vertex 4.000001 0.000001 0.000001
    endloop
  endfacet
  facet normal -0.000000 -1.000000 -0.000000
    outer loop
      vertex 4.000001 0.000001 60.000000
      vertex 0.000001 0.000001 60.000000
      vertex 4.000001 0.000001 0.000001
    endloop
  endfacet
  facet normal -1.000000 0.000000 -0.000000
    outer loop
      vertex 0.000001 4.000001 60.000000
      vertex 0.000001 4.000001 0.000001
      vertex 0.000001 0.000001 0.000001
    endloop
  endfacet
  facet normal -1.000000 0.000000 0.000000
    outer loop
      vertex 0.000001 0.000001 60.000000
      vertex 0.000001 4.000001 60.000000
      vertex 0.000001 0.000001 0.000001
    endloop
  endfacet
  facet normal 0.000000 1.000000 0.000000
    outer loop
      vertex 4.000001 4.000001 60.000000
      vertex 4.000001 4.000001 0.000001
      vertex 0.000001 4.000001 0.000001
    endloop
  endfacet
  facet normal -0.000000 1.000000 0.000000
    outer loop
      vertex 0.000001 4.000001 60.000000
      vertex 4.000001 4.000001 60.000000
      vertex 0.000001 4.000001 0.000001
    endloop
  endfacet
  facet normal 0.000000 0.000000 1.000000
    outer loop
      vertex 4.000001 0.000001 60.000000
      vertex 3.000001 3.000001 60.000000
      vertex 3.000001 1.000001 60.000000
    endloop
  endfacet
  facet normal -0.000000 0.000000 1.000000
    outer loop
      vertex 1.000001 1.000001 60.000000
      vertex 4.000001 0.000001 60.000000
      vertex 3.000001 1.000001 60.000000
    endloop
  endfacet
  facet normal 0.000000 0.000000 1.000000
    outer loop
      vertex 0.000001 0.000001 60.000000
      vertex 4.000001 0.000001 60.000000
      vertex 1.000001 1.000001 60.000000
    endloop
  endfacet
  facet normal 0.000000 0.000000 1.000000
    outer loop
      vertex 1.000001 3.000001 60.000000
      vertex 0.000001 0.000001 60.000000
      vertex 1.000001 1.000001 60.000000
    endloop
  endfacet
  facet normal 0.000000 0.000000 1.000000
    outer loop
      vertex 0.000001 4.000001 60.000000
      vertex 0.000001 0.000001 60.000000
      vertex 1.000001 3.000001 60.000000
    endloop
  endfacet
  facet normal 0.000000 0.000000 1.000000
    outer loop
      vertex 3.000001 3.000001 60.000000
      vertex 0.000001 4.000001 60.000000
      vertex 1.000001 3.000001 60.000000
    endloop
  endfacet
  facet normal 0.000000 0.000000 1.000000
    outer loop
      vertex 4.000001 4.000001 60.000000
      vertex 0.000001 4.000001 60.000000
      vertex 3.000001 3.000001 60.000000
    endloop
  endfacet
  facet normal 0.000000 -0.000000 1.000000
    outer loop
      vertex 4.000001 0.000001 60.000000
      vertex 4.000001 4.000001 60.000000
      vertex 3.000001 3.000001 60.000000
    endloop
  endfacet
  facet normal 0.000000 0.000000 -1.000000
    outer loop
      vertex 0.000001 0.000001 0.000001
      vertex 1.000001 3.000001 0.000001
      vertex 1.000001 1.000001 0.000001
    endloop
  endfacet
  facet normal -0.000000 0.000000 -1.000000
    outer loop
      vertex 3.000001 1.000001 0.000001
      vertex 0.000001 0.000001 0.000001
      vertex 1.000001 1.000001 0.000001
    endloop
  endfacet
  facet normal 0.000000 0.000000 -1.000000
    outer loop
      vertex 4.000001 0.000001 0.000001
      vertex 0.000001 0.000001 0.000001
      vertex 3.000001 1.000001 0.000001
    endloop
  endfacet
  facet normal 0.000000 0.000000 -1.000000
    outer loop
      vertex 3.000001 3.000001 0.000001
      vertex 4.000001 0.000001 0.000001
      vertex 3.000001 1.000001 0.000001
    endloop
  endfacet
  facet normal 0.000000 -0.000000 -1.000000
    outer loop
      vertex 4.000001 4.000001 0.000001
      vertex 4.000001 0.000001 0.000001
      vertex 3.000001 3.000001 0.000001
    endloop
  endfacet
  facet normal 0.000000 0.000000 -1.000000
    outer loop
      vertex 1.000001 3.000001 0.000001
      vertex 4.000001 4.000001 0.000001
      vertex 3.000001 3.000001 0.000001
    endloop
  endfacet
  facet normal 0.000000 0.000000 -1.000000
    outer loop
      vertex 0.000001 4.000001 0.000001
      vertex 4.000001 4.000001 0.000001
      vertex 1.000001 3.000001 0.000001
    endloop
  endfacet
  facet normal 0.000000 0.000000 -1.000000
    outer loop
      vertex 0.000001 0.000001 0.000001
      vertex 0.000001 4.000001 0.000001
      vertex 1.000001 3.000001 0.000001
    endloop
  endfacet
endsolid Mesh
